<svg xmlns="http://www.w3.org/2000/svg" xmlns:xlink="http://www.w3.org/1999/xlink" xmlns:lucid="lucid" width="831" height="1220"><g transform="translate(0 0)" lucid:page-tab-id="kXh5N1Q2X_Nj"><path d="M148 40c17.67 0 32 17.9 32 40s-14.33 40-32 40H52c-17.67 0-32-17.9-32-40s14.33-40 32-40z" stroke="#000" stroke-opacity="0" stroke-width="2" fill="#d2d3d5"/><use xlink:href="#a" transform="matrix(1,0,0,1,25,45) translate(56.025 38.4625)"/><path d="M260 28c0-4.42 3.58-8 8-8h144c4.42 0 8 3.58 8 8v104c0 4.42-3.58 8-8 8H268c-4.42 0-8-3.58-8-8z" stroke="#000" stroke-opacity="0" stroke-width="2" fill="#d85656"/><use xlink:href="#b" transform="matrix(1,0,0,1,265,25) translate(29.299999999999997 59.0875)"/><use xlink:href="#c" transform="matrix(1,0,0,1,265,25) translate(95.2 59.0875)"/><use xlink:href="#d" transform="matrix(1,0,0,1,265,25) translate(110.7 59.0875)"/><path d="M333.6 224.8c3.53-2.65 9.27-2.65 12.8 0l67.2 50.4c3.53 2.65 3.53 6.95 0 9.6l-67.2 50.4c-3.53 2.65-9.27 2.65-12.8 0l-67.2-50.4c-3.53-2.65-3.53-6.95 0-9.6z" stroke="#c54242" stroke-width="4" fill="#fff"/><use xlink:href="#e" transform="matrix(1,0,0,1,265,225) translate(54.029999999999994 33.897279999999995)"/><use xlink:href="#f" transform="matrix(1,0,0,1,265,225) translate(30.08 55.497279999999996)"/><use xlink:href="#g" transform="matrix(1,0,0,1,265,225) translate(58.03 55.497279999999996)"/><use xlink:href="#h" transform="matrix(1,0,0,1,265,225) translate(36.029999999999994 77.09728)"/><path d="M333.12 433.63c3.54-2.65 9.27-2.65 12.8 0l67.2 50.4c3.54 2.65 3.54 6.95 0 9.6l-67.2 50.4c-3.53 2.65-9.26 2.65-12.8 0l-67.2-50.4c-3.53-2.65-3.53-6.95 0-9.6z" stroke="#c54242" stroke-width="4" fill="#fff"/><use xlink:href="#i" transform="matrix(1,0,0,1,264.52130701940064,433.8332703278877) translate(35.055 41.9)"/><use xlink:href="#j" transform="matrix(1,0,0,1,264.52130701940064,433.8332703278877) translate(54.055 41.9)"/><use xlink:href="#k" transform="matrix(1,0,0,1,264.52130701940064,433.8332703278877) translate(19.104999999999993 63.5)"/><use xlink:href="#l" transform="matrix(1,0,0,1,264.52130701940064,433.8332703278877) translate(34.10499999999999 63.5)"/><use xlink:href="#m" transform="matrix(1,0,0,1,264.52130701940064,433.8332703278877) translate(100.905 63.5)"/><use xlink:href="#n" transform="matrix(1,0,0,1,264.52130701940064,433.8332703278877) translate(120.905 63.5)"/><use xlink:href="#o" transform="matrix(1,0,0,1,264.52130701940064,433.8332703278877) translate(47.505 85.10000000000001)"/><use xlink:href="#p" transform="matrix(1,0,0,1,264.52130701940064,433.8332703278877) translate(82.505 85.10000000000001)"/><path d="M333.6 644.8c3.53-2.65 9.27-2.65 12.8 0l67.2 50.4c3.53 2.65 3.53 6.95 0 9.6l-67.2 50.4c-3.53 2.65-9.27 2.65-12.8 0l-67.2-50.4c-3.53-2.65-3.53-6.95 0-9.6z" stroke="#c54242" stroke-width="4" fill="#fff"/><use xlink:href="#q" transform="matrix(1,0,0,1,265,645) translate(68.005 24.7125)"/><use xlink:href="#r" transform="matrix(1,0,0,1,265,645) translate(37.05499999999999 46.3125)"/><use xlink:href="#s" transform="matrix(1,0,0,1,265,645) translate(102.95500000000001 46.3125)"/><use xlink:href="#l" transform="matrix(1,0,0,1,265,645) translate(34.10499999999999 67.91250000000001)"/><use xlink:href="#t" transform="matrix(1,0,0,1,265,645) translate(100.905 67.91250000000001)"/><use xlink:href="#u" transform="matrix(1,0,0,1,265,645) translate(65.005 89.51250000000002)"/><path d="M549.94 867.73c1.14-4.27 5.64-7.73 10.06-7.73h152c4.42 0 7.08 3.46 5.94 7.73l-27.88 104.54c-1.14 4.27-5.64 7.73-10.06 7.73H528c-4.42 0-7.08-3.46-5.94-7.73z" stroke="#000" stroke-opacity="0" stroke-width="2" fill="#ffa0a0"/><use xlink:href="#v" transform="matrix(1,0,0,1,525,865) translate(57.005 59.0875)"/><use xlink:href="#w" transform="matrix(1,0,0,1,525,865) translate(93.005 59.0875)"/><path d="M148 240c17.67 0 32 17.9 32 40s-14.33 40-32 40H52c-17.67 0-32-17.9-32-40s14.33-40 32-40z" stroke="#000" stroke-opacity="0" stroke-width="2" fill="#d2d3d5"/><use xlink:href="#x" transform="matrix(1,0,0,1,25,245) translate(56.5 38.4625)"/><path d="M549.94 647.73c1.14-4.27 5.64-7.73 10.06-7.73h152c4.42 0 7.08 3.46 5.94 7.73l-27.88 104.54c-1.14 4.27-5.64 7.73-10.06 7.73H528c-4.42 0-7.08-3.46-5.94-7.73z" stroke="#000" stroke-opacity="0" stroke-width="2" fill="#ffa0a0"/><use xlink:href="#v" transform="matrix(1,0,0,1,525,645) translate(60.555 59.0875)"/><use xlink:href="#y" transform="matrix(1,0,0,1,525,645) translate(96.555 59.0875)"/><path d="M549.94 436.56c1.14-4.27 5.64-7.73 10.06-7.73h152c4.42 0 7.08 3.46 5.94 7.73L690.06 541.1c-1.14 4.27-5.64 7.73-10.06 7.73H528c-4.42 0-7.08-3.46-5.94-7.73z" stroke="#000" stroke-opacity="0" stroke-width="2" fill="#ffa0a0"/><use xlink:href="#v" transform="matrix(1,0,0,1,525,433.8332703278877) translate(38.055 59.0875)"/><use xlink:href="#z" transform="matrix(1,0,0,1,525,433.8332703278877) translate(74.055 59.0875)"/><use xlink:href="#w" transform="matrix(1,0,0,1,525,433.8332703278877) translate(111.955 59.0875)"/><path d="M180.5 80h63.12" stroke="#333" fill="none"/><path d="M180.5 80.5h-.53l.03-.5-.02-.5h.53z" fill="#333"/><path d="M258.38 80l-14.26 4.64v-9.28z" stroke="#333" fill="#333"/><path d="M205.37 280.5h-9v-1h9zm56 0h-24.9v-1h24.9z" fill="#333"/><path d="M261.84 280.5h-.5v-1h.54zM195.88 284.64L181.62 280l14.26-4.64z" fill="#333"/><path d="M196.38 285.32L180 280l16.38-5.32zM183.24 280l12.14 3.95v-7.9z" fill="#333"/><use xlink:href="#A" transform="matrix(1,0,0,1,205.37331507449426,270.6666666666667) translate(0 12.444444444444446)"/><path d="M340.02 413.36h-1v-28.13h1zm.48-46.8h-1V339.6h1zM340.5 339.1v.5h-1v-.52zM339.52 428.13l-4.63-14.27h9.26z" fill="#333"/><path d="M339.52 429.75l-5.32-16.4h10.64zm-3.95-15.4l3.95 12.16 3.95-12.14z" fill="#333"/><use xlink:href="#B" transform="matrix(1,0,0,1,328.35493827160496,366.5641846118704) translate(0 12.444444444444446)"/><path d="M340 140.5v64.03" stroke="#333" fill="none"/><path d="M340.5 140.5h-1v-.5h1z" fill="#333"/><path d="M340 219.3l-4.64-14.27h9.28z" stroke="#333" fill="#333"/><path d="M446.96 489.33h-28.8v-1h28.8zm72.66 0h-41.54v-1h41.54z" fill="#333"/><path d="M418.18 489.33h-.54l.04-1h.5zM534.38 488.83l-14.26 4.64v-9.27z" fill="#333"/><path d="M536 488.83l-16.38 5.33V483.5zm-15.38 3.95l12.14-3.95-12.14-3.94z" fill="#333"/><use xlink:href="#C" transform="matrix(1,0,0,1,446.96394772284634,479.4999369945544) translate(0 12.444444444444446)"/><path d="M813.32 280.03l2.88 1.5 2.28 2.27 1.5 2.88.52 3.28v188.9l-.53 3.3-1.5 2.88-2.27 2.27-2.88 1.5-3.28.53H704.5v-1h105.46l3.04-.5 2.6-1.33 2.06-2.06 1.35-2.6.5-3.05V290.03L819 287l-1.34-2.6-2.05-2.06L813 281l-3.04-.5H434.53v-1h375.5z" fill="#333"/><path d="M704.5 489.33h-.63l.26-1h.38zM434.03 284.64L419.76 280l14.27-4.64z" fill="#333"/><path d="M434.53 285.32l-16.4-5.32 16.4-5.32zM421.38 280l12.15 3.95v-7.9zM340.5 624.53h-1v-20.78h1zm-.48-39.45h-1v-36.66h1z" fill="#333"/><path d="M340.02 547.93v.5h-1v-.52zM340 639.3l-4.64-14.27h9.28z" fill="#333"/><path d="M340 640.9l-5.32-16.37h10.64zm-3.95-15.37l3.95 12.15 3.95-12.15z" fill="#333"/><use xlink:href="#B" transform="matrix(1,0,0,1,328.1155917813053,585.0833018306105) translate(0 12.444444444444446)"/><path d="M447.76 700.5h-29.12v-1h29.12zm71.86 0h-40.75v-1h40.75z" fill="#333"/><path d="M418.66 700.5h-.54l.04-1h.5zM534.38 700l-14.26 4.64v-9.28z" fill="#333"/><path d="M536 700l-16.38 5.32v-10.64zm-15.38 3.95l12.14-3.95-12.14-3.95z" fill="#333"/><use xlink:href="#C" transform="matrix(1,0,0,1,447.7626319966582,690.6666666666666) translate(0 12.444444444444446)"/><path d="M340.5 844.53h-1v-25.2h1zm0-43.86h-1V759.6h1zM340.5 759.1v.5h-1v-.52zM340 859.3l-4.64-14.27h9.28z" fill="#333"/><path d="M340 860.9l-5.32-16.37h10.64zm-3.95-15.37l3.95 12.15 3.95-12.15z" fill="#333"/><use xlink:href="#B" transform="matrix(1,0,0,1,328.35493827160496,800.6666666666666) translate(0 12.444444444444446)"/><path d="M447.54 922.56h-29.1v-1h29.1zm71.53 0H483.1v-1h35.97z" fill="#333"/><path d="M418.45 922.56h-.76l.37-.76v-.24h.38zM533.83 922.06l-14.26 4.64v-9.27z" fill="#333"/><path d="M535.45 922.06l-16.38 5.33v-10.66zM520.07 926l12.14-3.94-12.13-3.94z" fill="#333"/><use xlink:href="#D" transform="matrix(1,0,0,1,447.54312237659104,911.3959756344553) translate(0 14.222222222222223)"/><path d="M340.5 1129.96l.5 3.04 1.34 2.6 2.05 2.06 2.6 1.35 3.04.5h169.58v1H349.96l-3.28-.53-2.88-1.5-2.28-2.27-1.5-2.88-.52-3.28v-68h1zm0-86.58h-1v-63.8h1z" fill="#333"/><path d="M340.5 979.1v.5h-1v-.52zM534.38 1140l-14.26 4.64v-9.28z" fill="#333"/><path d="M536 1140l-16.38 5.32v-10.64zm-15.38 3.95l12.14-3.95-12.14-3.95z" fill="#333"/><g><use xlink:href="#B" transform="matrix(1,0,0,1,328.35493827160496,1043.377520540689) translate(0 12.444444444444446)"/></g><path d="M813.32 280.03l2.88 1.5 2.28 2.27 1.5 2.88.52 3.28v840.08l-.53 3.28-1.5 2.88-2.27 2.28-2.88 1.5-3.28.52H704.5v-1h105.46l3.04-.5 2.6-1.34 2.06-2.05 1.35-2.6.5-3.04V290.04L819 287l-1.34-2.6-2.05-2.06L813 281l-3.04-.5H434.53v-1h375.5z" fill="#333"/><path d="M704.5 1140.5h-.63l.26-1h.38zM434.03 284.64L419.76 280l14.27-4.64z" fill="#333"/><path d="M434.53 285.32l-16.4-5.32 16.4-5.32zM421.38 280l12.15 3.95v-7.9z" fill="#333"/><path d="M333.6 864.8c3.53-2.65 9.27-2.65 12.8 0l67.2 50.4c3.53 2.65 3.53 6.95 0 9.6l-67.2 50.4c-3.53 2.65-9.27 2.65-12.8 0l-67.2-50.4c-3.53-2.65-3.53-6.95 0-9.6z" stroke="#c54242" stroke-width="4" fill="#fff"/><g><use xlink:href="#E" transform="matrix(1,0,0,1,265,865) translate(68.005 24.7125)"/><use xlink:href="#F" transform="matrix(1,0,0,1,265,865) translate(37.05499999999999 46.3125)"/><use xlink:href="#G" transform="matrix(1,0,0,1,265,865) translate(102.95500000000001 46.3125)"/><use xlink:href="#H" transform="matrix(1,0,0,1,265,865) translate(34.10499999999999 67.91250000000001)"/><use xlink:href="#I" transform="matrix(1,0,0,1,265,865) translate(100.905 67.91250000000001)"/><use xlink:href="#J" transform="matrix(1,0,0,1,265,865) translate(65.005 89.51250000000002)"/></g><path d="M817.55 279.92l2.53 2.53.92 3.42v408.26l-.92 3.42-2.53 2.53-3.42.92H705v-2h108.87l2.64-.7 1.8-1.8.7-2.63V286.13l-.7-2.64-1.8-1.8-2.63-.7H436.64v-2h377.5z" fill="#5e5e5e"/><path d="M705.03 701h-1.3l.54-2h.76zM435.64 284.64L421.38 280l14.26-4.64z" fill="#5e5e5e"/><path d="M436.64 286l-18.5-6 18.5-6zm-12.03-6l10.04 3.26v-6.52zM817.55 279.92l2.53 2.53.92 3.42v628.26l-.92 3.42-2.53 2.53-3.42.92H705v-2h108.87l2.64-.7 1.8-1.8.7-2.63V286.13l-.7-2.64-1.8-1.8-2.63-.7H436.64v-2h377.5z" fill="#5e5e5e"/><path d="M705.03 921h-1.3l.54-2h.76zM435.64 284.64L421.38 280l14.26-4.64z" fill="#5e5e5e"/><path d="M436.64 286l-18.5-6 18.5-6zm-12.03-6l10.04 3.26v-6.52z" fill="#5e5e5e"/><path d="M550.45 1085.8c.86-3.2 4.24-5.8 7.55-5.8h156c3.3 0 5.3 2.6 4.45 5.8l-28.9 108.4c-.86 3.2-4.24 5.8-7.55 5.8H526c-3.3 0-5.3-2.6-4.45-5.8z" stroke="#000" stroke-opacity="0" stroke-width="3" fill="#ffa0a0"/><g><use xlink:href="#K" transform="matrix(1,0,0,1,525,1085) translate(32.338333333333345 58.90972222222222)"/><use xlink:href="#L" transform="matrix(1,0,0,1,525,1085) translate(67.8938888888889 58.90972222222222)"/><use xlink:href="#M" transform="matrix(1,0,0,1,525,1085) translate(97.52351851851853 58.90972222222222)"/></g><defs><path fill="#3d4752" d="M185-189c-5-48-123-54-124 2 14 75 158 14 163 119 3 78-121 87-175 55-17-10-28-26-33-46l33-7c5 56 141 63 141-1 0-78-155-14-162-118-5-82 145-84 179-34 5 7 8 16 11 25" id="N"/><path fill="#3d4752" d="M59-47c-2 24 18 29 38 22v24C64 9 27 4 27-40v-127H5v-23h24l9-43h21v43h35v23H59v120" id="O"/><path fill="#3d4752" d="M141-36C126-15 110 5 73 4 37 3 15-17 15-53c-1-64 63-63 125-63 3-35-9-54-41-54-24 1-41 7-42 31l-33-3c5-37 33-52 76-52 45 0 72 20 72 64v82c-1 20 7 32 28 27v20c-31 9-61-2-59-35zM48-53c0 20 12 33 32 33 41-3 63-29 60-74-43 2-92-5-92 41" id="P"/><path fill="#3d4752" d="M114-163C36-179 61-72 57 0H25l-1-190h30c1 12-1 29 2 39 6-27 23-49 58-41v29" id="Q"/><g id="a"><use transform="matrix(0.05,0,0,0.05,0,0)" xlink:href="#N"/><use transform="matrix(0.05,0,0,0.05,12,0)" xlink:href="#O"/><use transform="matrix(0.05,0,0,0.05,17,0)" xlink:href="#P"/><use transform="matrix(0.05,0,0,0.05,27,0)" xlink:href="#Q"/><use transform="matrix(0.05,0,0,0.05,32.95,0)" xlink:href="#O"/></g><path fill="#fff" d="M117-194c89-4 53 116 60 194h-32v-121c0-31-8-49-39-48C34-167 62-67 57 0H25l-1-190h30c1 10-1 24 2 32 11-22 29-35 61-36" id="R"/><path fill="#fff" d="M84 4C-5 8 30-112 23-190h32v120c0 31 7 50 39 49 72-2 45-101 50-169h31l1 190h-30c-1-10 1-25-2-33-11 22-28 36-60 37" id="S"/><path fill="#fff" d="M210-169c-67 3-38 105-44 169h-31v-121c0-29-5-50-35-48C34-165 62-65 56 0H25l-1-190h30c1 10-1 24 2 32 10-44 99-50 107 0 11-21 27-35 58-36 85-2 47 119 55 194h-31v-121c0-29-5-49-35-48" id="T"/><path fill="#fff" d="M115-194c53 0 69 39 70 98 0 66-23 100-70 100C84 3 66-7 56-30L54 0H23l1-261h32v101c10-23 28-34 59-34zm-8 174c40 0 45-34 45-75 0-40-5-75-45-74-42 0-51 32-51 76 0 43 10 73 51 73" id="U"/><path fill="#fff" d="M100-194c63 0 86 42 84 106H49c0 40 14 67 53 68 26 1 43-12 49-29l28 8c-11 28-37 45-77 45C44 4 14-33 15-96c1-61 26-98 85-98zm52 81c6-60-76-77-97-28-3 7-6 17-6 28h103" id="V"/><path fill="#fff" d="M114-163C36-179 61-72 57 0H25l-1-190h30c1 12-1 29 2 39 6-27 23-49 58-41v29" id="W"/><g id="b"><use transform="matrix(0.05,0,0,0.05,0,0)" xlink:href="#R"/><use transform="matrix(0.05,0,0,0.05,10,0)" xlink:href="#S"/><use transform="matrix(0.05,0,0,0.05,20,0)" xlink:href="#T"/><use transform="matrix(0.05,0,0,0.05,34.95,0)" xlink:href="#U"/><use transform="matrix(0.05,0,0,0.05,44.95,0)" xlink:href="#V"/><use transform="matrix(0.05,0,0,0.05,54.95,0)" xlink:href="#W"/></g><path fill="#fff" d="M18-150v-26h174v26H18zm0 90v-26h174v26H18" id="X"/><use transform="matrix(0.05,0,0,0.05,0,0)" xlink:href="#X" id="c"/><path fill="#fff" d="M27 0v-27h64v-190l-56 39v-29l58-41h29v221h61V0H27" id="Y"/><use transform="matrix(0.05,0,0,0.05,0,0)" xlink:href="#Y" id="d"/><path fill="#333" d="M197 0v-115H63V0H30v-248h33v105h134v-105h34V0h-34" id="Z"/><path fill="#333" d="M141-36C126-15 110 5 73 4 37 3 15-17 15-53c-1-64 63-63 125-63 3-35-9-54-41-54-24 1-41 7-42 31l-33-3c5-37 33-52 76-52 45 0 72 20 72 64v82c-1 20 7 32 28 27v20c-31 9-61-2-59-35zM48-53c0 20 12 33 32 33 41-3 63-29 60-74-43 2-92-5-92 41" id="aa"/><path fill="#333" d="M108 0H70L1-190h34L89-25l56-165h34" id="ab"/><path fill="#333" d="M100-194c63 0 86 42 84 106H49c0 40 14 67 53 68 26 1 43-12 49-29l28 8c-11 28-37 45-77 45C44 4 14-33 15-96c1-61 26-98 85-98zm52 81c6-60-76-77-97-28-3 7-6 17-6 28h103" id="ac"/><g id="e"><use transform="matrix(0.05,0,0,0.05,0,0)" xlink:href="#Z"/><use transform="matrix(0.05,0,0,0.05,12.950000000000001,0)" xlink:href="#aa"/><use transform="matrix(0.05,0,0,0.05,22.950000000000003,0)" xlink:href="#ab"/><use transform="matrix(0.05,0,0,0.05,31.950000000000003,0)" xlink:href="#ac"/></g><path fill="#333" d="M206 0h-36l-40-164L89 0H53L-1-190h32L70-26l43-164h34l41 164 42-164h31" id="ad"/><g id="f"><use transform="matrix(0.05,0,0,0.05,0,0)" xlink:href="#ad"/><use transform="matrix(0.05,0,0,0.05,12.950000000000001,0)" xlink:href="#ac"/></g><path fill="#333" d="M101-234c-31-9-42 10-38 44h38v23H63V0H32v-167H5v-23h27c-7-52 17-82 69-68v24" id="ae"/><path fill="#333" d="M24-231v-30h32v30H24zM24 0v-190h32V0H24" id="af"/><path fill="#333" d="M117-194c89-4 53 116 60 194h-32v-121c0-31-8-49-39-48C34-167 62-67 57 0H25l-1-190h30c1 10-1 24 2 32 11-22 29-35 61-36" id="ag"/><path fill="#333" d="M135-143c-3-34-86-38-87 0 15 53 115 12 119 90S17 21 10-45l28-5c4 36 97 45 98 0-10-56-113-15-118-90-4-57 82-63 122-42 12 7 21 19 24 35" id="ah"/><path fill="#333" d="M106-169C34-169 62-67 57 0H25v-261h32l-1 103c12-21 28-36 61-36 89 0 53 116 60 194h-32v-121c2-32-8-49-39-48" id="ai"/><path fill="#333" d="M85-194c31 0 48 13 60 33l-1-100h32l1 261h-30c-2-10 0-23-3-31C134-8 116 4 85 4 32 4 16-35 15-94c0-66 23-100 70-100zm9 24c-40 0-46 34-46 75 0 40 6 74 45 74 42 0 51-32 51-76 0-42-9-74-50-73" id="aj"/><g id="g"><use transform="matrix(0.05,0,0,0.05,0,0)" xlink:href="#ae"/><use transform="matrix(0.05,0,0,0.05,5,0)" xlink:href="#af"/><use transform="matrix(0.05,0,0,0.05,8.95,0)" xlink:href="#ag"/><use transform="matrix(0.05,0,0,0.05,18.95,0)" xlink:href="#af"/><use transform="matrix(0.05,0,0,0.05,22.9,0)" xlink:href="#ah"/><use transform="matrix(0.05,0,0,0.05,31.899999999999995,0)" xlink:href="#ai"/><use transform="matrix(0.05,0,0,0.05,41.9,0)" xlink:href="#ac"/><use transform="matrix(0.05,0,0,0.05,51.900000000000006,0)" xlink:href="#aj"/></g><path fill="#333" d="M96-169c-40 0-48 33-48 73s9 75 48 75c24 0 41-14 43-38l32 2c-6 37-31 61-74 61-59 0-76-41-82-99-10-93 101-131 147-64 4 7 5 14 7 22l-32 3c-4-21-16-35-41-35" id="ak"/><path fill="#333" d="M100-194c62-1 85 37 85 99 1 63-27 99-86 99S16-35 15-95c0-66 28-99 85-99zM99-20c44 1 53-31 53-75 0-43-8-75-51-75s-53 32-53 75 10 74 51 75" id="al"/><path fill="#333" d="M84 4C-5 8 30-112 23-190h32v120c0 31 7 50 39 49 72-2 45-101 50-169h31l1 190h-30c-1-10 1-25-2-33-11 22-28 36-60 37" id="am"/><path fill="#333" d="M59-47c-2 24 18 29 38 22v24C64 9 27 4 27-40v-127H5v-23h24l9-43h21v43h35v23H59v120" id="an"/><path fill="#333" d="M177-190C167-65 218 103 67 71c-23-6-38-20-44-43l32-5c15 47 100 32 89-28v-30C133-14 115 1 83 1 29 1 15-40 15-95c0-56 16-97 71-98 29-1 48 16 59 35 1-10 0-23 2-32h30zM94-22c36 0 50-32 50-73 0-42-14-75-50-75-39 0-46 34-46 75s6 73 46 73" id="ao"/><path fill="#333" d="M103-251c84 0 111 97 45 133-19 10-37 24-39 52H78c0-63 77-55 77-114 0-30-21-42-52-43-32 0-53 17-56 46l-32-2c7-45 34-72 88-72zM77 0v-35h34V0H77" id="ap"/><g id="h"><use transform="matrix(0.05,0,0,0.05,0,0)" xlink:href="#ak"/><use transform="matrix(0.05,0,0,0.05,9,0)" xlink:href="#al"/><use transform="matrix(0.05,0,0,0.05,19,0)" xlink:href="#am"/><use transform="matrix(0.05,0,0,0.05,29,0)" xlink:href="#ag"/><use transform="matrix(0.05,0,0,0.05,39,0)" xlink:href="#an"/><use transform="matrix(0.05,0,0,0.05,44,0)" xlink:href="#af"/><use transform="matrix(0.05,0,0,0.05,47.95,0)" xlink:href="#ag"/><use transform="matrix(0.05,0,0,0.05,57.95,0)" xlink:href="#ao"/><use transform="matrix(0.05,0,0,0.05,67.95,0)" xlink:href="#ap"/></g><path fill="#333" d="M33 0v-248h34V0H33" id="aq"/><g id="i"><use transform="matrix(0.05,0,0,0.05,0,0)" xlink:href="#aq"/><use transform="matrix(0.05,0,0,0.05,5,0)" xlink:href="#ah"/></g><path fill="#333" d="M210-169c-67 3-38 105-44 169h-31v-121c0-29-5-50-35-48C34-165 62-65 56 0H25l-1-190h30c1 10-1 24 2 32 10-44 99-50 107 0 11-21 27-35 58-36 85-2 47 119 55 194h-31v-121c0-29-5-49-35-48" id="ar"/><path fill="#333" d="M115-194c53 0 69 39 70 98 0 66-23 100-70 100C84 3 66-7 56-30L54 0H23l1-261h32v101c10-23 28-34 59-34zm-8 174c40 0 45-34 45-75 0-40-5-75-45-74-42 0-51 32-51 76 0 43 10 73 51 73" id="as"/><path fill="#333" d="M114-163C36-179 61-72 57 0H25l-1-190h30c1 12-1 29 2 39 6-27 23-49 58-41v29" id="at"/><g id="j"><use transform="matrix(0.05,0,0,0.05,0,0)" xlink:href="#ag"/><use transform="matrix(0.05,0,0,0.05,10,0)" xlink:href="#am"/><use transform="matrix(0.05,0,0,0.05,20,0)" xlink:href="#ar"/><use transform="matrix(0.05,0,0,0.05,34.95,0)" xlink:href="#as"/><use transform="matrix(0.05,0,0,0.05,44.95,0)" xlink:href="#ac"/><use transform="matrix(0.05,0,0,0.05,54.95,0)" xlink:href="#at"/></g><use transform="matrix(0.05,0,0,0.05,0,0)" xlink:href="#aa" id="k"/><path fill="#333" d="M24 0v-261h32V0H24" id="au"/><path fill="#333" d="M115-194c55 1 70 41 70 98S169 2 115 4C84 4 66-9 55-30l1 105H24l-1-265h31l2 30c10-21 28-34 59-34zm-8 174c40 0 45-34 45-75s-6-73-45-74c-42 0-51 32-51 76 0 43 10 73 51 73" id="av"/><g id="l"><use transform="matrix(0.05,0,0,0.05,0,0)" xlink:href="#ar"/><use transform="matrix(0.05,0,0,0.05,14.950000000000001,0)" xlink:href="#am"/><use transform="matrix(0.05,0,0,0.05,24.950000000000003,0)" xlink:href="#au"/><use transform="matrix(0.05,0,0,0.05,28.900000000000002,0)" xlink:href="#an"/><use transform="matrix(0.05,0,0,0.05,33.900000000000006,0)" xlink:href="#af"/><use transform="matrix(0.05,0,0,0.05,37.85000000000001,0)" xlink:href="#av"/><use transform="matrix(0.05,0,0,0.05,47.85000000000001,0)" xlink:href="#au"/><use transform="matrix(0.05,0,0,0.05,51.80000000000001,0)" xlink:href="#ac"/></g><g id="m"><use transform="matrix(0.05,0,0,0.05,0,0)" xlink:href="#al"/><use transform="matrix(0.05,0,0,0.05,10,0)" xlink:href="#ae"/></g><path fill="#333" d="M126-127c33 6 58 20 58 59 0 88-139 92-164 29-3-8-5-16-6-25l32-3c6 27 21 44 54 44 32 0 52-15 52-46 0-38-36-46-79-43v-28c39 1 72-4 72-42 0-27-17-43-46-43-28 0-47 15-49 41l-32-3c6-42 35-63 81-64 48-1 79 21 79 65 0 36-21 52-52 59" id="aw"/><use transform="matrix(0.05,0,0,0.05,0,0)" xlink:href="#aw" id="n"/><g id="o"><use transform="matrix(0.05,0,0,0.05,0,0)" xlink:href="#aa"/><use transform="matrix(0.05,0,0,0.05,10,0)" xlink:href="#ag"/><use transform="matrix(0.05,0,0,0.05,20,0)" xlink:href="#aj"/></g><path fill="#333" d="M54-142c48-35 137-8 131 61C196 18 31 33 14-55l32-4c7 23 22 37 52 37 35-1 51-22 54-58 4-55-73-65-99-34H22l8-134h141v27H59" id="ax"/><g id="p"><use transform="matrix(0.05,0,0,0.05,0,0)" xlink:href="#ax"/><use transform="matrix(0.05,0,0,0.05,10,0)" xlink:href="#ap"/></g><g id="q"><use transform="matrix(0.05,0,0,0.05,0,0)" xlink:href="#aq"/><use transform="matrix(0.05,0,0,0.05,5,0)" xlink:href="#ah"/></g><g id="r"><use transform="matrix(0.05,0,0,0.05,0,0)" xlink:href="#ag"/><use transform="matrix(0.05,0,0,0.05,10,0)" xlink:href="#am"/><use transform="matrix(0.05,0,0,0.05,20,0)" xlink:href="#ar"/><use transform="matrix(0.05,0,0,0.05,34.95,0)" xlink:href="#as"/><use transform="matrix(0.05,0,0,0.05,44.95,0)" xlink:href="#ac"/><use transform="matrix(0.05,0,0,0.05,54.95,0)" xlink:href="#at"/></g><use transform="matrix(0.05,0,0,0.05,0,0)" xlink:href="#aa" id="s"/><g id="t"><use transform="matrix(0.05,0,0,0.05,0,0)" xlink:href="#al"/><use transform="matrix(0.05,0,0,0.05,10,0)" xlink:href="#ae"/></g><g id="u"><use transform="matrix(0.05,0,0,0.05,0,0)" xlink:href="#aw"/><use transform="matrix(0.05,0,0,0.05,10,0)" xlink:href="#ap"/></g><path fill="#333" d="M185-189c-5-48-123-54-124 2 14 75 158 14 163 119 3 78-121 87-175 55-17-10-28-26-33-46l33-7c5 56 141 63 141-1 0-78-155-14-162-118-5-82 145-84 179-34 5 7 8 16 11 25" id="ay"/><path fill="#333" d="M179-190L93 31C79 59 56 82 12 73V49c39 6 53-20 64-50L1-190h34L92-34l54-156h33" id="az"/><g id="v"><use transform="matrix(0.05,0,0,0.05,0,0)" xlink:href="#ay"/><use transform="matrix(0.05,0,0,0.05,12,0)" xlink:href="#aa"/><use transform="matrix(0.05,0,0,0.05,22,0)" xlink:href="#az"/></g><path fill="#333" d="M160-131c35 5 61 23 61 61C221 17 115-2 30 0v-248c76 3 177-17 177 60 0 33-19 50-47 57zm-97-11c50-1 110 9 110-42 0-47-63-36-110-37v79zm0 115c55-2 124 14 124-45 0-56-70-42-124-44v89" id="aA"/><path fill="#333" d="M9 0v-24l116-142H16v-24h144v24L44-24h123V0H9" id="aB"/><g id="w"><use transform="matrix(0.05,0,0,0.05,0,0)" xlink:href="#aA"/><use transform="matrix(0.05,0,0,0.05,12,0)" xlink:href="#am"/><use transform="matrix(0.05,0,0,0.05,22,0)" xlink:href="#aB"/><use transform="matrix(0.05,0,0,0.05,31,0)" xlink:href="#aB"/></g><g id="x"><use transform="matrix(0.05,0,0,0.05,0,0)" xlink:href="#ay"/><use transform="matrix(0.05,0,0,0.05,12,0)" xlink:href="#an"/><use transform="matrix(0.05,0,0,0.05,17,0)" xlink:href="#al"/><use transform="matrix(0.05,0,0,0.05,27,0)" xlink:href="#av"/></g><path fill="#333" d="M63-220v92h138v28H63V0H30v-248h175v28H63" id="aC"/><g id="y"><use transform="matrix(0.05,0,0,0.05,0,0)" xlink:href="#aC"/><use transform="matrix(0.05,0,0,0.05,10.950000000000001,0)" xlink:href="#af"/><use transform="matrix(0.05,0,0,0.05,14.9,0)" xlink:href="#aB"/><use transform="matrix(0.05,0,0,0.05,23.900000000000002,0)" xlink:href="#aB"/></g><g id="z"><use transform="matrix(0.05,0,0,0.05,0,0)" xlink:href="#aC"/><use transform="matrix(0.05,0,0,0.05,10.950000000000001,0)" xlink:href="#af"/><use transform="matrix(0.05,0,0,0.05,14.9,0)" xlink:href="#aB"/><use transform="matrix(0.05,0,0,0.05,23.900000000000002,0)" xlink:href="#aB"/></g><path fill="#333" d="M146-102V0H94v-102L6-248h54l60 105 60-105h54" id="aD"/><path fill="#333" d="M24 0v-248h195v40H76v63h132v40H76v65h150V0H24" id="aE"/><path fill="#333" d="M169-182c-1-43-94-46-97-3 18 66 151 10 154 114 3 95-165 93-204 36-6-8-10-19-12-30l50-8c3 46 112 56 116 5-17-69-150-10-154-114-4-87 153-88 188-35 5 8 8 18 10 28" id="aF"/><g id="A"><use transform="matrix(0.04320987654320988,0,0,0.04320987654320988,0,0)" xlink:href="#aD"/><use transform="matrix(0.04320987654320988,0,0,0.04320987654320988,10.370370370370372,0)" xlink:href="#aE"/><use transform="matrix(0.04320987654320988,0,0,0.04320987654320988,20.740740740740744,0)" xlink:href="#aF"/></g><path fill="#333" d="M175 0L67-191c6 58 2 128 3 191H24v-248h59L193-55c-6-58-2-129-3-193h46V0h-61" id="aG"/><path fill="#333" d="M140-251c80 0 125 45 125 126S219 4 139 4C58 4 15-44 15-125s44-126 125-126zm-1 214c52 0 73-35 73-88 0-50-21-86-72-86-52 0-73 35-73 86s22 88 72 88" id="aH"/><g id="B"><use transform="matrix(0.04320987654320988,0,0,0.04320987654320988,0,0)" xlink:href="#aG"/><use transform="matrix(0.04320987654320988,0,0,0.04320987654320988,11.19135802469136,0)" xlink:href="#aH"/></g><g id="C"><use transform="matrix(0.04320987654320988,0,0,0.04320987654320988,0,0)" xlink:href="#aD"/><use transform="matrix(0.04320987654320988,0,0,0.04320987654320988,10.370370370370372,0)" xlink:href="#aE"/><use transform="matrix(0.04320987654320988,0,0,0.04320987654320988,20.740740740740744,0)" xlink:href="#aF"/></g><g id="D"><use transform="matrix(0.04938271604938272,0,0,0.04938271604938272,0,0)" xlink:href="#aD"/><use transform="matrix(0.04938271604938272,0,0,0.04938271604938272,11.851851851851853,0)" xlink:href="#aE"/><use transform="matrix(0.04938271604938272,0,0,0.04938271604938272,23.703703703703706,0)" xlink:href="#aF"/></g><g id="E"><use transform="matrix(0.05,0,0,0.05,0,0)" xlink:href="#aq"/><use transform="matrix(0.05,0,0,0.05,5,0)" xlink:href="#ah"/></g><g id="F"><use transform="matrix(0.05,0,0,0.05,0,0)" xlink:href="#ag"/><use transform="matrix(0.05,0,0,0.05,10,0)" xlink:href="#am"/><use transform="matrix(0.05,0,0,0.05,20,0)" xlink:href="#ar"/><use transform="matrix(0.05,0,0,0.05,34.95,0)" xlink:href="#as"/><use transform="matrix(0.05,0,0,0.05,44.95,0)" xlink:href="#ac"/><use transform="matrix(0.05,0,0,0.05,54.95,0)" xlink:href="#at"/></g><use transform="matrix(0.05,0,0,0.05,0,0)" xlink:href="#aa" id="G"/><g id="H"><use transform="matrix(0.05,0,0,0.05,0,0)" xlink:href="#ar"/><use transform="matrix(0.05,0,0,0.05,14.950000000000001,0)" xlink:href="#am"/><use transform="matrix(0.05,0,0,0.05,24.950000000000003,0)" xlink:href="#au"/><use transform="matrix(0.05,0,0,0.05,28.900000000000002,0)" xlink:href="#an"/><use transform="matrix(0.05,0,0,0.05,33.900000000000006,0)" xlink:href="#af"/><use transform="matrix(0.05,0,0,0.05,37.85000000000001,0)" xlink:href="#av"/><use transform="matrix(0.05,0,0,0.05,47.85000000000001,0)" xlink:href="#au"/><use transform="matrix(0.05,0,0,0.05,51.80000000000001,0)" xlink:href="#ac"/></g><g id="I"><use transform="matrix(0.05,0,0,0.05,0,0)" xlink:href="#al"/><use transform="matrix(0.05,0,0,0.05,10,0)" xlink:href="#ae"/></g><g id="J"><use transform="matrix(0.05,0,0,0.05,0,0)" xlink:href="#ax"/><use transform="matrix(0.05,0,0,0.05,10,0)" xlink:href="#ap"/></g><g id="K"><use transform="matrix(0.049382716049382706,0,0,0.049382716049382706,0,0)" xlink:href="#ay"/><use transform="matrix(0.049382716049382706,0,0,0.049382716049382706,11.85185185185185,0)" xlink:href="#aa"/><use transform="matrix(0.049382716049382706,0,0,0.049382716049382706,21.728395061728392,0)" xlink:href="#az"/></g><g id="L"><use transform="matrix(0.049382716049382706,0,0,0.049382716049382706,0,0)" xlink:href="#an"/><use transform="matrix(0.049382716049382706,0,0,0.049382716049382706,4.93827160493827,0)" xlink:href="#ai"/><use transform="matrix(0.049382716049382706,0,0,0.049382716049382706,14.814814814814811,0)" xlink:href="#ac"/></g><g id="M"><use transform="matrix(0.049382716049382706,0,0,0.049382716049382706,0,0)" xlink:href="#ag"/><use transform="matrix(0.049382716049382706,0,0,0.049382716049382706,9.87654320987654,0)" xlink:href="#am"/><use transform="matrix(0.049382716049382706,0,0,0.049382716049382706,19.75308641975308,0)" xlink:href="#ar"/><use transform="matrix(0.049382716049382706,0,0,0.049382716049382706,34.51851851851851,0)" xlink:href="#as"/><use transform="matrix(0.049382716049382706,0,0,0.049382716049382706,44.39506172839505,0)" xlink:href="#ac"/><use transform="matrix(0.049382716049382706,0,0,0.049382716049382706,54.271604938271594,0)" xlink:href="#at"/></g></defs></g></svg>